<?xml version="1.0" encoding="utf-8"?>
<!-- Generator: Adobe Illustrator 19.1.0, SVG Export Plug-In . SVG Version: 6.00 Build 0)  -->
<svg version="1.1" id="Calque_1" xmlns="http://www.w3.org/2000/svg" xmlns:xlink="http://www.w3.org/1999/xlink" x="0px" y="0px"
	 viewBox="0 0 512 512" style="enable-background:new 0 0 512 512;" xml:space="preserve">
<style type="text/css">
	.st0{fill: #22A7F0;}
</style>
<path id="CD" class="st0" d="M303.6,82.3l-93.7,313.1c0,0-46.9,2.6-69.7-9.4c-15.5-8.2-29.8-16.8-41-29.4
	c-11.1-12.6-19.7-27.6-25.5-44.8c-5.8-17.3-8.7-36.3-8.9-56.9c0-20.3,2.7-39.2,8.4-56.5s13.9-32.3,24.8-45
	c11-12.7,24.5-22.6,40.8-30c16.3-7.3,35-10.8,56.3-10.8l71.5-0.2l9.2-30.8l-80.6,0.2c-25.2,0-47.9,4.4-68.2,12.7
	c-20.3,8.2-37.6,20-51.8,35c-14.2,15-25.2,33.2-32.7,54.4c-7.7,21.1-11.6,44.8-11.5,71c0,23.5,3.4,45.8,10.3,66.5
	c6.8,20.8,17.1,38.9,30.8,54.4s30.8,27.9,51.6,36.5c40.5,16.6,76.9,13.9,76.9,13.9l35.8-0.6l94.2-314.2c14.8,1.8,28.7,5.2,41.1,10.5
	c16.1,6.9,29.8,16.8,41,29.4s19.7,27.6,25.5,44.8c5.8,17.3,8.7,36.3,8.9,56.9c0,20.3-2.7,39.2-8.4,56.5c-5.6,17.3-13.9,32.3-24.8,45
	s-24.5,22.6-40.8,30c-16.3,7.3-35,10.8-56.3,10.8l-40.5,0.2l-9.2,30.8l49.7-0.2c25.2,0,47.9-4.4,68.2-12.7c20.3-8.2,37.6-20,51.8-35
	c14.2-15,25.2-33.2,32.7-54.4c7.7-21.1,11.6-44.8,11.5-71c0-23.5-3.4-45.8-10.3-66.5c-6.8-20.8-17.1-38.9-30.8-54.4
	s-31-27.4-51.6-36.5c-20.5-8.9-44.4-13.2-71.5-13.2c-0.2,0-0.3,0-0.6,0L303.6,82.3"/>
</svg>
